<?xml version="1.0" standalone="no"?>
<!DOCTYPE svg PUBLIC "-//W3C//DTD SVG 20010904//EN"
 "http://www.w3.org/TR/2001/REC-SVG-20010904/DTD/svg10.dtd">
<svg version="1.0" xmlns="http://www.w3.org/2000/svg"
 width="800.000000pt" height="800.000000pt" viewBox="0 0 800.000000 800.000000"
 preserveAspectRatio="xMidYMid meet">
<metadata>
Created by potrace 1.14, written by Peter Selinger 2001-2017
</metadata>
<g transform="translate(0.000000,800.000000) scale(0.100000,-0.100000)"
fill="#000000" stroke="none">
<path d="M1416 7968 c-7 -18 -16 -41 -19 -50 -4 -11 -17 -18 -30 -18 -32 0
-40 -38 -27 -128 22 -154 90 -336 161 -429 22 -29 37 -58 34 -63 -4 -6 -24
-19 -45 -30 -62 -32 -167 -137 -212 -212 -31 -52 -57 -80 -103 -113 -69 -50
-160 -141 -168 -171 -3 -10 -11 -43 -17 -73 -11 -46 -22 -63 -79 -120 -48 -47
-80 -91 -110 -151 -24 -47 -45 -87 -47 -89 -2 -2 -33 8 -68 23 -105 45 -241
76 -357 83 -132 7 -179 0 -172 -26 4 -15 -7 -24 -52 -45 l-58 -26 5 -51 c5
-44 3 -52 -13 -56 -28 -8 -23 -29 23 -107 117 -198 202 -293 318 -355 33 -18
60 -34 60 -37 0 -3 -13 -24 -29 -47 -85 -124 -115 -223 -113 -375 l0 -113 -65
-137 c-36 -75 -103 -215 -149 -310 -46 -95 -84 -178 -84 -185 1 -21 96 161
186 356 48 103 89 186 91 184 8 -8 -61 -225 -86 -271 -15 -28 -42 -89 -61
-136 -18 -47 -55 -128 -82 -181 -41 -82 -48 -104 -48 -154 0 -51 2 -57 14 -45
19 19 113 154 178 253 28 43 52 76 54 74 3 -2 -4 -33 -15 -68 -46 -150 -112
-449 -110 -498 1 -14 10 12 21 59 36 157 99 404 120 470 49 159 83 262 119
358 22 56 39 113 39 127 0 18 5 25 20 25 25 0 25 -6 1 -89 -10 -36 -24 -95
-31 -131 -26 -143 -43 -208 -94 -368 -88 -271 -113 -359 -151 -517 -42 -181
-78 -314 -100 -375 -22 -59 -42 -227 -57 -470 -38 -641 100 -1564 279 -1859
121 -200 279 -364 455 -470 67 -40 41 -13 -39 40 -162 110 -343 312 -422 474
-22 44 -58 141 -80 215 -42 139 -86 328 -79 336 3 2 31 -62 62 -144 32 -81 79
-190 105 -242 48 -97 269 -451 316 -505 14 -16 2 8 -28 55 -180 282 -225 358
-282 475 -61 125 -120 291 -145 405 -7 30 -19 75 -26 100 -26 81 -5 627 42
1090 35 355 120 836 209 1180 l14 55 -4 -60 c-22 -307 -27 -485 -22 -711 6
-276 25 -534 39 -534 10 0 10 31 -2 242 -5 95 -11 229 -14 297 -4 125 9 537
20 600 5 30 7 31 18 15 13 -16 14 -16 25 2 10 15 11 4 6 -56 -10 -116 -6 -480
6 -525 6 -22 17 -89 25 -150 16 -123 36 -220 47 -231 4 -4 7 20 7 53 0 118 24
380 51 556 11 68 28 82 30 24 l1 -32 9 30 c4 17 12 57 16 90 l8 60 5 -70 5
-70 15 75 c10 48 20 74 27 73 13 -3 19 13 32 92 7 42 9 29 11 -75 2 -138 3
-137 45 40 31 134 55 213 62 207 8 -8 8 -1745 1 -1740 -10 5 -10 -28 -2 -79 4
-21 10 -35 15 -32 5 3 9 -8 9 -25 0 -16 -6 -31 -12 -33 -10 -4 -10 -10 -1 -29
6 -13 12 -18 12 -11 2 29 21 -2 21 -33 0 -19 4 -56 9 -82 5 -26 15 -91 21
-143 12 -90 54 -360 70 -445 47 -242 65 -309 161 -595 40 -120 34 -121 -33 -5
-48 82 -156 256 -197 318 -115 171 -306 671 -391 1027 -18 74 -37 153 -43 175
l-12 40 -3 -38 c-8 -87 104 -475 219 -765 63 -158 124 -279 271 -535 200 -352
349 -563 264 -376 -30 65 -128 402 -162 554 -14 61 -27 118 -30 128 -3 9 -1
17 4 17 5 0 24 -35 41 -77 17 -43 63 -136 102 -208 63 -117 91 -180 164 -370
23 -60 93 -223 120 -280 11 -23 15 -25 15 -10 0 11 -12 45 -26 75 -150 317
-293 783 -393 1285 -164 819 -219 1822 -135 2485 44 347 91 599 129 685 14 32
27 56 29 54 2 -2 -7 -56 -20 -119 -33 -156 -60 -344 -78 -530 -18 -183 -31
-458 -22 -449 3 3 17 68 31 144 13 76 26 139 28 141 5 6 27 -279 28 -371 2
-155 14 -144 27 25 13 170 33 287 44 258 4 -9 12 -63 18 -120 37 -355 39 -372
48 -363 4 4 10 39 14 78 4 44 5 16 3 -72 -4 -156 3 -233 39 -441 14 -74 32
-191 41 -260 24 -190 76 -514 82 -520 3 -3 2 13 -1 35 -3 22 -19 146 -36 275
-48 381 -60 472 -70 515 -12 50 -12 78 0 50 15 -34 12 23 -11 214 -30 251 -23
647 15 934 32 241 124 669 150 695 14 13 3 -73 -25 -208 -44 -215 -59 -308
-59 -375 l1 -60 28 31 c19 22 31 50 40 95 24 128 34 159 52 159 13 0 25 24 49
103 17 56 35 113 41 127 l9 25 -4 -25 c-3 -14 -8 -63 -11 -110 -4 -47 -9 -93
-12 -104 -3 -10 -1 -16 5 -13 5 4 17 37 26 74 22 88 54 183 55 161 1 -16 -10
-129 -39 -422 -6 -55 -9 -101 -6 -103 2 -2 16 45 31 106 15 60 47 169 71 243
l44 133 -6 -75 c-3 -41 -8 -86 -11 -100 -3 -14 -2 -22 3 -17 5 4 20 49 34 100
21 78 28 92 47 95 12 2 24 11 27 20 3 9 3 -18 0 -60 -3 -43 -3 -78 -1 -78 3 0
11 26 17 58 14 68 72 274 76 269 2 -1 -3 -52 -11 -112 -8 -61 -15 -129 -15
-153 0 -40 1 -42 20 -32 11 6 20 16 20 23 0 7 9 39 20 72 l19 60 -6 -205 c-3
-113 -3 -203 0 -200 3 3 13 47 22 97 18 108 62 264 77 278 7 7 8 -8 4 -52 -8
-72 -25 -358 -26 -422 0 -24 3 -41 7 -37 8 8 72 319 67 325 -2 2 -11 -2 -20
-10 -16 -13 -16 -8 -10 70 4 46 11 92 14 102 15 40 130 103 170 92 16 -4 18
-11 14 -55 -3 -30 0 -53 6 -57 7 -4 7 -32 1 -86 -31 -278 -59 -568 -59 -616
l0 -46 -86 -32 c-183 -70 -367 -195 -528 -360 -82 -83 -46 -67 70 31 148 126
175 146 274 204 96 56 192 101 238 110 l31 6 -4 -48 c-20 -224 -9 -886 20
-1247 8 -98 15 -186 15 -196 0 -12 -20 -28 -62 -49 -43 -21 -102 -67 -184
-144 -88 -82 -143 -125 -201 -155 -109 -58 -119 -57 -127 11 -4 30 -11 67 -16
82 -9 27 -8 1 3 -132 1 -13 -5 -20 -21 -22 -20 -3 -29 9 -74 105 -28 59 -77
178 -109 263 -56 150 -58 154 -59 105 -1 -92 30 -549 45 -655 8 -58 22 -161
30 -230 8 -69 25 -197 39 -285 14 -88 30 -196 36 -240 49 -347 197 -898 326
-1212 19 -45 34 -85 34 -90 0 -15 -200 225 -339 407 -81 106 -94 108 -22 2
103 -149 381 -470 381 -440 0 10 -65 215 -171 542 -10 32 -17 57 -15 55 2 -2
34 -49 71 -104 140 -207 343 -416 470 -482 24 -13 20 -5 -27 46 -73 81 -261
351 -244 351 2 0 31 -23 63 -51 204 -179 634 -403 833 -435 l44 -7 -32 39
c-17 21 -46 57 -64 79 -18 21 -26 35 -18 30 8 -5 44 -28 80 -50 36 -23 85 -51
110 -62 59 -27 218 -83 236 -83 10 0 14 14 14 55 l0 54 94 -45 c68 -33 111
-47 155 -51 l61 -6 0 -33 c0 -22 -5 -34 -13 -34 -8 0 -22 -9 -32 -20 -20 -22
-7 -28 14 -7 11 9 14 9 18 0 11 -29 33 -12 34 25 1 20 4 48 8 62 7 23 9 22 20
-18 7 -24 9 -52 6 -62 -6 -20 2 -20 464 -20 417 0 477 2 528 17 79 24 216 24
262 0 25 -13 59 -17 131 -17 l96 0 -9 73 c-5 39 -7 156 -4 258 3 102 3 195 0
207 -4 18 -11 21 -44 17 -21 -2 -48 -7 -59 -10 -30 -10 -24 1 15 25 19 12 39
19 45 15 6 -4 9 -2 8 4 -2 5 13 21 32 36 l35 26 7 -173 c12 -268 44 -478 74
-478 12 0 14 5 9 18 -14 32 -18 122 -6 122 6 0 34 -31 62 -70 l51 -70 101 0
c55 0 97 3 93 8 -4 4 -39 23 -78 42 -64 31 -73 40 -88 80 -19 50 -35 61 -45
31 -11 -36 -42 -45 -75 -21 -22 16 -30 17 -37 8 -10 -17 -22 49 -22 130 -1 56
1 63 22 71 165 64 258 121 360 219 31 28 58 52 61 52 9 0 -41 -78 -82 -127
-30 -37 -32 -44 -17 -49 10 -4 41 1 69 11 79 28 273 128 356 184 41 27 76 48
78 47 5 -5 -67 -187 -84 -214 -8 -13 -14 -27 -12 -32 6 -16 133 140 240 294
26 38 48 68 48 65 0 -10 -40 -240 -55 -312 -22 -113 -20 -118 20 -72 88 99
250 323 327 450 20 33 66 89 102 124 74 73 73 76 14 -93 -21 -60 -36 -111 -34
-113 7 -7 149 222 216 350 40 76 91 161 115 190 63 77 177 252 218 332 69 139
158 356 216 531 33 98 60 175 61 170 2 -54 -43 -398 -86 -661 -30 -181 -62
-368 -69 -416 -8 -47 -21 -118 -30 -158 -8 -40 -15 -81 -15 -92 0 -94 286 496
379 781 73 224 148 515 196 755 9 44 18 87 21 95 3 8 23 -32 43 -90 21 -58 57
-150 82 -205 l44 -100 3 80 c2 67 -2 92 -27 165 -17 47 -49 150 -71 229 l-40
145 15 100 c8 56 21 173 30 260 8 87 17 161 19 163 3 3 12 -10 22 -29 16 -32
31 -48 47 -48 4 0 7 50 7 111 0 110 0 112 -35 170 -59 97 -121 236 -174 393
-28 82 -51 156 -50 165 1 20 2 16 63 -140 60 -153 188 -418 193 -399 2 9 -13
49 -33 90 -34 69 -38 85 -45 195 -4 66 -10 145 -13 175 -5 53 -5 54 9 25 7
-16 23 -70 35 -120 53 -220 48 -239 49 220 1 231 -3 435 -8 452 -6 20 -6 35 0
38 5 4 9 36 9 73 -1 65 -1 66 -16 39 -18 -34 -30 -28 -39 19 -10 56 -132 426
-186 563 l-48 123 31 57 c17 31 49 84 71 119 40 62 41 63 54 40 43 -78 83
-254 112 -503 l19 -160 1 378 c1 375 1 377 -21 412 -13 19 -36 40 -51 46 -37
15 -125 5 -157 -19 -13 -10 -51 -66 -83 -123 l-58 -104 7 175 c9 231 -4 337
-52 433 -46 94 -68 130 -124 202 -25 33 -58 78 -73 100 -14 22 -43 57 -63 78
-34 34 -35 39 -21 55 50 56 144 257 171 363 19 75 10 119 -22 119 -15 0 -21
10 -26 42 -9 56 -21 68 -66 68 -48 0 -70 8 -70 26 0 23 -71 17 -157 -14 -99
-35 -235 -109 -320 -174 l-66 -51 -45 49 c-93 100 -350 358 -427 428 -117 106
-306 242 -459 331 -47 27 -48 29 -43 67 8 58 -7 46 -28 -23 -24 -83 -68 -168
-105 -206 -16 -17 -56 -41 -88 -53 -101 -39 -101 -39 -69 -39 69 -2 121 21
177 78 l55 56 48 -12 c156 -38 311 -159 363 -281 12 -30 12 -31 -18 -37 -31
-7 -32 -11 -13 -71 6 -18 1 -24 -27 -33 -154 -55 -348 7 -501 162 -44 43 -80
77 -82 75 -2 -2 3 -32 11 -68 21 -99 21 -276 0 -326 -21 -52 -73 -82 -152 -90
-49 -5 -75 -1 -159 26 -131 42 -181 68 -248 130 -71 65 -104 142 -86 199 27
80 76 131 222 226 31 21 57 42 57 47 0 5 -35 6 -77 2 -99 -8 -199 13 -305 62
-84 40 -145 96 -188 172 l-24 42 -91 0 c-89 0 -92 -1 -121 -31 -75 -79 -190
-114 -354 -106 -73 3 -123 11 -165 26 -32 11 -64 21 -69 21 -6 0 10 -21 35
-47 59 -62 133 -169 155 -222 21 -54 15 -141 -13 -179 -75 -101 -368 -162
-521 -109 -161 57 -183 176 -71 398 21 42 36 79 33 82 -3 2 -40 -15 -82 -39
-91 -52 -145 -70 -264 -86 -99 -13 -155 -4 -240 38 -60 30 -65 40 -39 75 11
15 21 31 21 33 0 3 -14 13 -32 22 l-32 16 56 54 56 54 -147 0 c-144 0 -149 -1
-187 -27 -102 -70 -124 -83 -189 -119 -38 -20 -102 -63 -141 -95 l-71 -58 -59
60 c-106 108 -296 239 -346 239 -13 0 3 -12 38 -31 132 -69 338 -249 379 -329
13 -25 26 -68 31 -95 6 -44 8 -47 16 -25 10 27 -3 94 -27 140 -14 27 -13 29
41 80 51 48 183 121 216 119 7 0 1 -6 -14 -13 -27 -12 -27 -12 -8 -29 19 -16
22 -16 55 0 27 13 32 19 24 30 -6 7 -19 14 -28 14 -30 2 43 17 91 18 64 1 76
-5 70 -36 -5 -28 10 -43 47 -43 23 0 24 -2 18 -54 -9 -91 -56 -163 -156 -240
-80 -62 -165 -102 -249 -117 -40 -7 -71 -18 -69 -23 2 -6 41 -22 88 -37 156
-48 233 -99 265 -175 21 -50 17 -78 -21 -154 -42 -83 -115 -160 -213 -224 -89
-58 -139 -76 -209 -76 -81 0 -107 18 -146 103 -36 76 -74 253 -65 301 9 45
-11 29 -37 -31 -35 -79 -94 -153 -172 -218 -93 -77 -140 -97 -245 -103 l-87
-5 10 37 c12 45 6 56 -32 56 -36 0 -38 20 -9 112 15 48 35 83 77 133 32 38 65
71 73 73 11 4 10 0 -3 -13 -21 -21 -14 -34 8 -15 9 7 13 20 10 27 -6 17 18 39
87 82 39 25 48 28 58 16 6 -8 35 -25 63 -40 40 -20 66 -25 123 -25 40 0 76 5
79 10 4 7 -3 8 -20 4 -22 -6 -33 1 -74 43 -40 42 -54 66 -80 145 -17 52 -36
121 -41 154 -37 218 -51 328 -52 387 l0 67 -70 0 c-69 0 -69 0 -82 -32z m130
-49 c0 -56 -1 -60 -20 -54 -12 3 -42 11 -68 17 -27 6 -48 15 -48 20 0 5 7 24
14 43 14 34 17 35 68 35 l53 0 1 -61z m-81 -59 c82 -21 95 -30 95 -67 0 -47
51 -293 79 -385 35 -113 44 -133 79 -170 l26 -28 -26 0 c-141 0 -301 236 -344
505 -18 116 -18 165 -1 165 8 0 49 -9 92 -20z m3349 -326 c12 -31 5 -43 -30
-54 -19 -7 -36 -10 -37 -8 -1 1 -8 14 -15 26 -15 28 -16 26 23 40 42 15 52 14
59 -4z m-95 -41 c13 -29 3 -43 -31 -43 -10 0 -21 0 -25 -1 -5 0 -11 10 -14 23
-4 17 0 26 15 35 31 18 42 16 55 -14z m-499 -146 c0 -9 -32 -19 -97 -30 -171
-30 -196 -17 -40 19 112 26 137 28 137 11z m2215 -47 c44 -19 127 -71 152 -96
6 -6 15 -28 18 -48 8 -39 28 -56 68 -56 46 0 51 -23 18 -82 -30 -53 -40 -111
-22 -122 4 -3 11 -27 15 -53 10 -77 22 -78 22 -2 1 69 2 71 44 114 94 96 298
166 571 195 57 6 112 13 122 16 13 4 17 0 17 -19 0 -44 -49 -191 -96 -288 -37
-77 -54 -100 -79 -112 -31 -15 -33 -14 -100 29 -89 57 -141 60 -236 12 l-64
-33 -1 -187 c0 -168 -3 -191 -21 -230 -12 -24 -37 -77 -57 -118 -19 -42 -46
-86 -59 -99 -47 -43 -140 -46 -217 -6 -50 26 -172 138 -217 199 -80 108 -102
238 -52 307 38 54 91 78 247 109 52 10 96 21 100 24 10 11 -11 24 -86 55 -101
42 -206 130 -265 221 -27 43 -57 139 -57 187 l0 43 44 0 45 0 -6 37 -6 36 56
-6 c30 -4 76 -16 102 -27z m825 -52 l-17 -81 -119 -28 c-141 -33 -221 -59
-283 -95 -53 -31 -141 -112 -141 -131 0 -7 -4 -13 -10 -13 -29 0 -2 82 47 147
70 92 399 267 528 282 7 1 5 -28 -5 -81z m-3396 32 c-9 -9 -60 -18 -234 -41
-213 -28 -307 -39 -330 -38 -23 1 -23 1 5 9 17 4 100 17 185 29 85 12 198 28
250 35 123 18 136 18 124 6z m3511 0 c18 0 25 -8 33 -42 6 -24 8 -46 4 -49 -4
-4 -37 -9 -74 -13 -77 -7 -76 -8 -57 71 11 43 13 45 42 39 16 -3 40 -6 52 -6z
m-4195 -90 c-14 -4 -43 -8 -65 -8 l-40 1 45 7 c65 10 92 10 60 0z m-580 -29
c0 -12 -20 -25 -27 -18 -7 7 6 27 18 27 5 0 9 -4 9 -9z m130 -1 c0 -5 -7 -10
-16 -10 -8 0 -12 5 -9 10 3 6 10 10 16 10 5 0 9 -4 9 -10z m60 6 c0 -3 -4 -8
-10 -11 -5 -3 -10 -1 -10 4 0 6 5 11 10 11 6 0 10 -2 10 -4z m4259 -402 c-11
-41 -75 -116 -121 -140 l-26 -14 -7 49 c-4 29 -2 57 4 69 9 16 150 86 158 78
1 -1 -2 -20 -8 -42z m-5919 -122 c0 -40 6 -43 52 -26 23 8 43 12 45 10 10 -10
22 -135 17 -176 -8 -66 -86 -217 -145 -284 -29 -31 -76 -71 -105 -88 -30 -16
-54 -35 -54 -40 0 -7 32 -8 98 -2 160 15 238 8 286 -24 59 -40 71 -71 71 -177
-1 -103 -20 -168 -79 -259 -20 -31 -36 -60 -36 -64 0 -11 -89 -95 -122 -115
-93 -58 -192 -12 -295 138 -59 87 -83 128 -83 148 0 9 -4 17 -10 17 -6 0 -10
-28 -10 -62 0 -35 -7 -92 -15 -127 -21 -86 -88 -222 -134 -269 -37 -38 -124
-93 -168 -107 -20 -6 -23 -3 -23 22 0 16 -6 38 -14 48 -13 17 -17 18 -40 6
-14 -8 -29 -11 -33 -8 -11 12 -18 140 -11 200 9 68 54 182 101 252 26 40 38
49 57 47 79 -8 147 -4 175 11 34 18 19 21 -40 7 -98 -23 -272 63 -389 191 -99
108 -210 285 -184 293 30 10 188 27 197 22 5 -3 25 -34 44 -69 100 -178 216
-320 325 -396 53 -37 46 -18 -8 23 -71 55 -141 133 -214 244 -58 87 -193 322
-208 363 -21 54 279 13 502 -69 94 -34 167 -101 192 -177 11 -36 16 -43 17
-25 2 51 -20 98 -64 141 -25 24 -45 50 -45 57 0 22 56 124 102 188 46 62 131
127 198 150 49 18 50 18 50 -14z m5978 -35 c12 -13 24 -37 28 -54 4 -22 28
-50 85 -99 107 -94 134 -114 154 -114 24 0 55 -78 62 -156 l6 -67 -25 6 c-36
9 -52 -13 -43 -59 l6 -37 -51 7 c-71 9 -188 54 -194 75 -30 103 -75 521 -56
521 3 0 16 -10 28 -23z m-1628 -100 c0 -7 22 -69 50 -137 27 -68 48 -125 46
-128 -3 -2 -14 17 -25 42 -12 25 -31 51 -44 58 -12 7 -62 15 -111 18 -100 6
-118 19 -61 46 20 9 58 38 83 64 50 51 62 58 62 37z m-2042 -46 c15 -11 44
-22 65 -26 30 -5 37 -10 37 -29 0 -14 -10 -30 -22 -39 -50 -32 -111 -101 -134
-150 -28 -61 -28 -59 -9 69 9 54 18 120 22 147 3 26 8 47 10 47 2 0 16 -9 31
-19z m362 -36 c20 -24 4 -45 -35 -45 -23 0 -38 6 -41 15 -8 21 14 45 41 45 12
0 28 -7 35 -15z m-1243 -34 c-3 -14 -10 -42 -16 -61 -5 -19 -24 -93 -42 -163
l-33 -129 -16 43 c-9 23 -27 54 -40 68 -14 16 -19 30 -14 37 5 6 25 33 46 60
20 26 51 78 70 115 33 66 55 81 45 30z m2169 -7 c17 -41 11 -95 -8 -76 -11 11
-21 112 -12 112 3 0 12 -16 20 -36z m1273 -19 c11 -25 21 -57 21 -72 0 -25 -4
-22 -30 26 -28 51 -41 109 -21 97 5 -3 18 -26 30 -51z m-1941 34 c-2 -6 -8
-10 -13 -10 -5 0 -11 4 -13 10 -2 6 4 11 13 11 9 0 15 -5 13 -11z m2154 -35
c4 -3 8 2 8 10 0 28 16 17 40 -26 13 -24 33 -52 43 -63 11 -11 26 -36 34 -55
30 -68 88 -289 79 -298 -3 -3 -25 35 -48 84 -41 85 -46 90 -103 121 -59 31
-61 34 -117 145 -31 62 -54 116 -52 120 4 6 90 -22 116 -38z m1352 -89 c49
-94 49 -96 52 -202 l4 -108 -29 110 c-28 108 -84 281 -103 320 -30 63 34 -38
76 -120z m-4475 111 c8 -9 9 -41 5 -99 l-7 -86 -52 -16 c-29 -8 -56 -15 -59
-15 -24 0 22 196 51 218 22 16 48 15 62 -2z m2800 -15 c7 -5 10 -14 7 -20 -9
-14 -53 -15 -61 -1 -15 25 24 40 54 21z m-5695 -57 c14 -26 26 -50 26 -55 0
-4 -21 -11 -47 -14 -27 -3 -60 -9 -75 -11 -27 -5 -28 -5 -28 44 0 48 1 50 38
65 55 22 58 21 86 -29z m5051 36 c3 -5 -1 -10 -9 -10 -9 0 -16 5 -16 10 0 6 4
10 9 10 6 0 13 -4 16 -10z m-3434 -27 c-12 -20 -14 -14 -5 12 4 9 9 14 11 11
3 -2 0 -13 -6 -23z m-20 -70 c-18 -63 -14 -98 14 -124 13 -13 25 -27 25 -31 0
-3 -20 -31 -44 -60 -45 -55 -95 -147 -176 -321 -35 -75 -52 -100 -75 -111 -16
-8 -31 -14 -32 -12 -1 1 9 33 23 72 14 38 43 116 64 174 47 130 74 199 106
268 13 29 24 55 24 58 0 12 73 135 77 130 2 -2 0 -21 -6 -43z m3809 -58 c0 -5
-5 -3 -10 5 -5 8 -10 20 -10 25 0 6 5 3 10 -5 5 -8 10 -19 10 -25z m-3595 -64
c-7 -12 -75 -35 -82 -28 -7 7 48 36 70 37 10 0 16 -4 12 -9z m5475 -35 c0 -13
3 -39 6 -57 l5 -34 -15 25 c-17 28 -21 90 -6 90 6 0 10 -11 10 -24z m-3073
-71 c6 -22 19 -82 29 -133 9 -51 23 -100 30 -110 12 -15 14 -8 14 48 l1 65 18
-39 c15 -35 18 -37 25 -20 7 17 8 18 17 2 5 -9 16 -45 23 -80 13 -58 14 -60
15 -23 0 22 -5 79 -13 127 -7 48 -9 93 -5 99 8 14 14 -9 34 -146 32 -215 48
-399 70 -785 l6 -106 -52 -17 c-29 -9 -56 -14 -61 -11 -4 3 -8 26 -8 52 0 70
-27 233 -43 265 -14 27 -15 27 -18 5 -2 -13 -2 -72 1 -131 3 -59 3 -134 2
-167 -4 -58 -4 -59 -58 -101 -30 -23 -52 -44 -49 -47 3 -3 28 7 57 23 l51 28
-6 -274 c-11 -444 -72 -978 -158 -1363 -11 -49 -18 -93 -16 -99 5 -16 66 256
93 413 13 80 33 212 43 293 15 115 23 151 37 161 15 11 18 38 24 187 4 96 6
197 3 224 -2 28 0 77 5 110 l8 60 8 -100 c4 -55 12 -138 17 -185 5 -47 12
-190 15 -317 7 -216 6 -234 -11 -253 -10 -11 -23 -20 -30 -20 -12 0 -75 -72
-75 -86 0 -4 9 1 20 11 20 18 20 17 20 -18 0 -42 16 -49 26 -12 4 18 13 25 30
25 23 0 24 -3 24 -64 0 -63 0 -64 -47 -105 -25 -23 -66 -56 -90 -74 -51 -36
-45 -44 16 -24 22 8 41 13 41 10 0 -2 -18 -32 -39 -66 -22 -34 -38 -64 -35
-66 2 -3 38 19 79 47 l76 51 -7 -37 c-3 -20 -8 -45 -11 -56 -12 -42 22 -5 77
84 68 111 188 244 271 300 32 22 60 40 63 40 3 0 -6 -25 -20 -56 -20 -47 -64
-185 -64 -205 0 -3 24 -4 54 -1 88 7 146 -42 146 -125 0 -64 -102 -109 -175
-79 -21 9 -40 14 -42 12 -11 -11 29 -192 57 -260 35 -85 102 -180 152 -218
133 -101 307 -111 473 -27 146 74 164 84 165 92 0 14 -56 6 -88 -13 -18 -11
-35 -20 -38 -20 -3 0 9 20 26 45 21 31 29 52 25 66 -10 31 -25 18 -46 -40 -27
-77 -61 -117 -127 -147 -51 -24 -66 -26 -152 -22 -117 5 -171 28 -251 107 -59
60 -93 121 -104 188 -6 39 -4 43 39 85 68 65 108 99 111 96 2 -2 10 -20 19
-41 8 -20 19 -37 23 -36 29 5 35 -2 29 -36 -6 -32 -4 -37 34 -64 23 -16 54
-33 70 -36 37 -8 116 25 124 53 4 11 14 23 22 26 21 8 45 70 54 136 6 40 9 49
15 34 3 -12 23 -29 43 -39 36 -18 36 -18 13 -24 -14 -4 -26 -11 -28 -16 -3
-11 95 -38 108 -29 5 3 9 -10 9 -29 0 -34 13 -47 45 -47 32 0 45 245 20 376
-23 121 -100 307 -153 367 -29 33 -3 29 93 -17 77 -36 112 -61 172 -118 85
-82 150 -163 182 -226 21 -41 21 -44 6 -108 -8 -36 -27 -95 -41 -131 -14 -35
-24 -66 -22 -68 2 -3 24 22 47 55 24 33 51 65 59 72 13 12 14 8 8 -32 -4 -25
-11 -83 -16 -130 -5 -47 -16 -121 -25 -164 -8 -44 -12 -96 -9 -116 5 -27 0
-49 -19 -86 -13 -27 -27 -67 -31 -89 -8 -47 -74 -327 -87 -370 l-9 -30 20 25
c11 14 40 64 65 112 75 143 80 129 29 -75 -27 -110 -28 -121 -14 -112 13 8 70
122 95 188 25 65 37 43 29 -50 -3 -40 -3 -73 0 -73 4 0 18 24 31 53 13 28 24
45 24 37 1 -25 -29 -162 -40 -182 -6 -11 -8 -23 -4 -26 7 -7 34 24 106 121 28
37 53 67 56 67 2 0 2 -12 -1 -27 -7 -39 -17 -102 -21 -142 l-3 -35 21 35 c49
81 97 153 97 147 0 -4 -11 -40 -24 -80 -14 -40 -32 -102 -41 -137 -17 -66
-101 -284 -138 -356 -116 -229 -591 -677 -1012 -953 -192 -126 -649 -368 -714
-378 -24 -4 -94 -4 -155 -1 -105 5 -156 14 -486 93 -92 22 -386 119 -500 164
-295 117 -656 314 -855 464 -114 86 -257 264 -403 504 -69 115 -74 120 -115
129 -33 7 -54 5 -96 -9 -30 -10 -62 -18 -71 -18 -38 0 -106 89 -124 162 l-6
28 47 -6 c27 -3 73 -12 104 -20 73 -18 89 -18 62 1 -13 9 -23 30 -27 58 -11
70 -57 151 -128 226 -43 44 -68 79 -68 93 0 23 -22 123 -35 165 -6 20 -3 22
41 25 43 3 49 6 48 25 -1 30 12 20 37 -29 24 -47 32 -46 20 3 -5 19 -11 51
-14 71 -5 36 -4 38 22 38 16 0 34 -7 42 -16 40 -48 252 -121 382 -131 67 -5
81 -9 97 -31 11 -14 20 -29 20 -33 0 -5 13 -30 30 -57 34 -54 39 -40 15 51 -8
32 -15 61 -15 65 0 3 31 -24 68 -61 62 -62 94 -79 72 -38 -26 47 -120 406
-120 459 0 36 12 41 135 49 l90 6 12 -54 c7 -30 18 -87 24 -127 7 -40 14 -70
16 -68 5 4 -13 178 -23 228 -5 26 -3 28 28 28 18 0 38 -4 44 -8 13 -8 46 -70
73 -139 37 -91 85 -187 89 -175 2 6 -12 46 -31 89 -19 43 -49 111 -65 151
l-31 73 37 -3 c40 -3 35 5 61 -123 8 -43 9 -39 4 33 l-6 83 39 -7 c84 -16 264
-76 352 -119 99 -47 114 -53 94 -33 -21 21 -13 27 26 22 l37 -5 -25 18 c-14
10 -38 31 -55 46 -30 28 -30 29 -5 23 14 -3 52 -8 85 -11 l60 -5 -90 24 c-77
20 -84 24 -51 25 52 1 39 12 -59 46 -44 15 -123 45 -176 67 -90 37 -97 42
-117 84 -35 72 -33 74 56 73 111 -1 186 -19 190 -44 7 -49 13 -65 23 -59 6 3
7 19 4 35 -6 25 -4 29 17 29 20 1 18 4 -14 20 -43 23 -184 41 -260 33 l-55 -5
-41 94 c-77 175 -156 451 -182 638 -6 41 -17 113 -25 160 -19 115 -53 394 -61
506 l-7 91 34 5 c19 3 93 3 164 0 110 -4 128 -2 117 9 -10 10 -53 15 -167 17
l-155 4 -1 106 c-1 59 -5 141 -9 182 -5 59 -7 36 -8 -106 l-2 -182 -77 -11
c-42 -6 -78 -10 -80 -8 -9 10 -5 347 5 472 7 77 19 223 27 325 18 220 38 347
70 438 33 93 43 59 22 -73 -19 -113 -22 -245 -7 -245 19 0 29 39 36 151 6 108
26 234 38 247 3 3 6 -59 6 -137 0 -139 11 -177 24 -86 9 59 26 68 27 13 0 -56
13 -26 24 57 6 53 8 58 21 41 15 -21 12 -26 33 69 l9 40 1 -35 c1 -19 8 -53
15 -75 10 -26 13 -60 9 -97 -3 -32 -3 -58 0 -58 3 0 13 35 22 78 28 130 29
131 57 82 26 -46 53 -40 69 18 l13 47 3 -45 c6 -103 15 -191 19 -187 2 2 22
68 43 146 22 78 42 145 45 148 3 4 6 -53 6 -125 0 -73 3 -132 6 -132 15 0 34
33 50 86 l18 59 7 -45 c3 -25 9 -72 13 -105 14 -119 18 -111 57 114 21 123 41
226 44 229 3 3 5 -75 5 -174 l1 -179 19 39 c25 50 60 211 60 276 0 28 5 61 11
72 21 39 29 -2 29 -149 l0 -141 27 7 c25 7 29 15 41 77 13 68 39 113 49 86 8
-21 23 -2 23 30 0 39 22 148 30 148 6 0 71 -218 70 -238 0 -7 5 -10 10 -7 6 3
10 39 10 80 0 77 14 125 37 125 7 0 13 -5 13 -11 0 -5 5 -7 10 -4 17 11 41
-16 69 -75 24 -52 25 -53 29 -26 2 16 -1 57 -7 91 -19 109 -15 117 25 45 20
-36 38 -67 40 -69 2 -2 1 30 -2 71 -4 49 -3 77 4 82 6 3 30 -19 54 -50 24 -32
56 -71 71 -88 l28 -31 -6 40 c-3 22 -9 51 -11 65 -4 20 9 10 60 -45 50 -53 66
-65 66 -50 1 18 3 17 23 -7 27 -33 37 -36 30 -8 -4 16 -2 19 11 14 9 -3 16
-10 16 -16 0 -5 5 -6 10 -3 6 4 8 15 5 26 -13 41 12 15 49 -51 57 -100 116
-160 116 -116 0 8 -12 47 -26 88 -40 115 -72 218 -68 218 2 0 19 -31 38 -69
18 -38 44 -80 56 -93 12 -12 35 -50 50 -83 24 -50 30 -57 36 -40 11 26 11 161
1 260 -8 83 1 92 20 20z m507 -80 c93 -83 96 -83 57 14 l-22 54 58 -51 c32
-28 78 -71 103 -96 24 -25 48 -46 52 -46 5 0 2 16 -6 35 -18 42 -10 45 21 8
20 -25 22 -26 22 -8 0 11 -10 47 -24 80 -23 58 -23 59 -2 31 12 -16 37 -48 54
-70 18 -23 50 -65 70 -95 43 -62 53 -52 29 30 -9 29 -14 54 -12 57 4 3 29 -29
74 -94 11 -17 12 -15 6 14 -4 24 -2 32 9 32 20 0 72 -52 105 -104 31 -50 39
-33 17 35 -9 27 -15 52 -13 54 2 2 22 -20 45 -49 22 -29 55 -63 73 -76 29 -21
32 -21 26 -4 -25 82 -47 264 -32 264 2 0 11 3 19 6 9 3 16 -2 20 -13 2 -10 21
-72 42 -138 56 -184 102 -355 140 -524 19 -85 35 -156 35 -158 0 -1 -49 15
-108 36 -159 56 -316 99 -447 120 -105 17 -295 34 -329 28 -32 -5 -32 -5 -45
51 -16 70 -30 106 -37 99 -3 -3 4 -48 16 -99 27 -114 70 -336 70 -360 0 -10
-6 -18 -13 -18 -8 0 -20 30 -32 83 -10 45 -25 100 -33 122 -7 22 -27 83 -42
135 -16 52 -51 162 -79 243 -28 82 -57 178 -65 215 -8 37 -17 81 -21 97 -6 26
-3 24 20 -15 36 -61 38 -62 30 -10 l-7 45 32 -50 c18 -27 46 -76 62 -108 17
-32 32 -56 35 -53 3 3 -2 29 -11 58 -52 174 -76 270 -70 279 4 6 9 7 13 3 3
-5 46 -45 95 -89z m2574 -133 c18 -14 23 -26 20 -53 l-3 -34 -28 53 c-29 55
-27 63 11 34z m-728 -27 c10 -12 10 -21 0 -46 -10 -24 -12 -87 -7 -277 10
-338 21 -429 112 -882 13 -62 -16 14 -35 92 -61 258 -110 673 -110 929 0 197
6 225 40 184z m-840 -185 c29 -57 29 -61 20 -132 -6 -40 -15 -122 -21 -183 -6
-60 -12 -111 -14 -113 -8 -8 -47 192 -55 278 -5 52 -12 115 -15 140 l-6 45 16
-29 c15 -24 19 -26 31 -14 10 10 12 22 5 46 -14 48 5 30 39 -38z m280 -202 c0
-5 5 -8 11 -8 7 0 9 9 6 23 -3 12 -9 34 -12 50 -13 49 9 28 59 -58 26 -47 50
-85 51 -85 2 0 3 14 3 30 -1 17 2 33 5 36 7 7 37 -49 37 -70 0 -8 10 -20 22
-27 21 -11 21 -10 15 37 -21 152 -23 148 26 46 25 -52 47 -96 50 -98 2 -3 -2
21 -10 53 -17 72 -34 166 -30 170 4 4 55 -163 103 -340 9 -32 17 -57 19 -55 3
4 -12 89 -31 173 -21 95 -2 131 43 83 18 -20 23 -44 32 -169 16 -210 60 -440
127 -662 15 -49 24 -103 24 -145 0 -88 11 -172 21 -172 5 0 10 37 11 83 1 77
1 75 8 -38 4 -66 17 -183 29 -260 11 -77 24 -176 28 -220 l7 -80 7 70 c4 39 7
180 8 314 l1 244 37 -6 c48 -8 53 -14 74 -94 10 -37 27 -95 38 -127 26 -74 26
-87 0 -183 -20 -72 -21 -84 -9 -162 12 -78 66 -257 119 -391 35 -89 132 -293
154 -323 18 -27 19 -35 8 -170 -14 -169 -32 -277 -55 -332 -10 -22 -19 -53
-21 -70 -4 -42 -15 -99 -32 -180 -9 -38 -17 -97 -18 -130 -2 -33 -15 -100 -30
-150 -15 -49 -30 -103 -35 -120 -36 -132 -173 -493 -244 -640 -57 -118 -167
-318 -185 -338 -4 -4 10 44 31 108 67 203 93 317 153 665 19 113 53 297 76
410 52 259 55 277 74 435 9 72 24 200 35 285 11 85 25 214 31 285 21 240 -25
468 -111 550 -31 30 -116 49 -108 25 2 -7 15 -14 29 -14 43 -2 76 -33 107 -98
44 -94 56 -163 56 -353 1 -235 -24 -336 -143 -572 -59 -118 -122 -204 -203
-278 -85 -76 -124 -93 -231 -97 l-87 -3 0 28 c0 70 48 115 194 181 79 36 103
51 133 90 19 25 38 46 41 46 2 0 -2 -8 -9 -17 -7 -10 -20 -27 -29 -39 -8 -11
0 -5 17 14 18 19 30 38 28 42 -3 4 4 19 15 33 24 30 76 140 86 180 5 20 3 27
-7 25 -7 -2 -15 6 -17 17 -7 36 -71 103 -119 126 -27 12 -49 23 -51 25 -7 5
23 127 33 129 5 2 27 6 47 10 39 6 98 48 86 60 -3 4 -20 -1 -38 -10 -18 -9
-34 -15 -36 -13 -2 2 13 12 32 23 l36 19 -7 66 c-3 36 -7 95 -8 133 -1 37 -4
67 -7 67 -5 0 -4 114 1 135 1 6 0 17 -4 25 -3 8 -8 22 -10 30 -3 8 -6 3 -6
-12 -1 -15 -5 -30 -11 -33 -12 -7 -12 55 0 175 9 94 2 200 -11 178 -5 -7 -9
-70 -9 -140 0 -177 -59 -596 -120 -858 -12 -50 -23 -90 -25 -88 -2 2 3 64 11
138 20 177 27 301 15 245 -5 -22 -14 -74 -21 -115 -25 -154 -62 -280 -134
-458 -41 -101 -85 -200 -97 -220 -12 -20 -40 -71 -62 -112 -42 -78 -161 -265
-175 -274 -4 -2 1 34 11 82 18 86 38 475 23 461 -4 -4 -26 -62 -50 -130 -51
-146 -108 -291 -112 -286 -2 2 5 44 16 93 45 203 79 490 87 736 8 243 6 241
110 209 141 -42 233 -36 128 9 -57 24 -155 91 -198 134 l-33 33 -13 234 c-7
129 -23 340 -37 469 -14 129 -29 281 -34 337 -5 56 -17 147 -26 202 -15 91
-13 191 3 191 15 0 247 -97 324 -135 48 -23 134 -72 192 -109 58 -36 108 -66
112 -66 3 0 5 12 3 28 -2 21 1 26 15 24 10 -2 17 3 17 14 0 29 -23 98 -38 116
-27 33 -294 174 -495 263 -82 37 -107 52 -102 63 3 9 17 115 31 236 15 122 28
228 31 236 4 13 92 -132 93 -152z m-1461 -118 c18 -47 45 -132 61 -189 16 -57
35 -108 42 -112 8 -5 2 -10 -18 -14 -16 -4 -50 -13 -76 -20 -59 -17 -53 -38
-68 240 -6 116 -13 239 -16 275 l-4 65 24 -80 c13 -44 38 -118 55 -165z m1245
110 c-25 -237 -98 -628 -120 -648 -7 -7 -3 22 21 153 21 109 51 327 64 462 7
62 15 121 18 130 12 31 24 -37 17 -97z m1702 34 c-21 -40 -26 -44 -26 -24 0
28 41 101 47 84 2 -6 -8 -33 -21 -60z m-2811 -129 c13 -44 38 -130 54 -192 31
-120 30 -123 -22 -123 -14 0 -18 3 -10 8 10 6 7 39 -12 142 -22 121 -37 194
-52 255 -12 51 19 -16 42 -90z m2920 -48 c19 -54 58 -173 85 -265 28 -92 53
-175 56 -184 4 -13 0 -18 -13 -18 -15 0 -26 18 -47 73 -16 39 -57 143 -93 230
-65 157 -65 159 -53 205 14 52 20 65 26 60 2 -2 19 -48 39 -101z m-6805 32 c0
-19 -21 -59 -30 -59 -6 0 -15 11 -22 25 -9 19 -7 29 7 51 17 26 18 27 31 9 8
-10 14 -22 14 -26z m-211 -33 c22 -27 -1 -70 -69 -127 -36 -31 -82 -79 -102
-108 l-37 -53 6 38 c7 46 44 162 58 185 11 18 104 79 121 79 6 0 17 -6 23 -14z
m4896 -71 c110 -36 213 -73 223 -80 1 -1 0 -9 -3 -17 -5 -14 -12 -14 -48 -3
-48 14 -272 106 -332 135 l-40 20 35 -6 c19 -3 94 -25 165 -49z m1829 -50 c26
-75 42 -145 33 -145 -17 0 -91 212 -79 224 10 11 21 -8 46 -79z m-2269 40 c44
-7 105 -21 135 -29 30 -8 99 -26 153 -41 53 -14 110 -30 125 -36 15 -6 50 -14
77 -19 39 -6 133 -34 154 -47 7 -4 -61 -323 -106 -496 l-46 -178 -49 48 c-62
60 -184 200 -319 366 -171 211 -191 238 -185 245 12 11 249 -18 346 -43 52
-13 146 -42 208 -64 111 -39 137 -39 61 -1 -142 73 -383 129 -551 130 -98 0
-85 -9 -170 122 l-38 58 63 0 c34 0 98 -7 142 -15z m-222 -25 c3 -11 1 -18 -4
-14 -5 3 -9 12 -9 20 0 20 7 17 13 -6z m2473 -158 c45 -33 124 -117 124 -132
0 -16 -13 -12 -64 20 -26 17 -74 44 -107 60 -63 32 -73 50 -36 68 33 16 40 15
83 -16z m-2473 -49 c3 -21 8 -72 11 -113 l6 -75 -18 85 c-10 47 -22 97 -25
113 -6 20 -4 27 7 27 8 0 16 -15 19 -37z m107 -48 c129 -178 284 -347 565
-614 193 -182 202 -192 262 -280 41 -61 67 -115 95 -195 37 -109 51 -215 27
-200 -8 5 -9 -6 -5 -37 l7 -44 -43 50 c-23 28 -80 87 -126 132 -69 68 -103 91
-186 132 -156 78 -186 83 -421 75 -217 -7 -257 -2 -327 42 -22 14 -42 23 -45
21 -8 -9 72 -80 111 -98 l40 -18 -40 -17 c-21 -10 -51 -26 -65 -36 -98 -65
-304 -168 -337 -168 -5 0 -7 14 -4 30 5 35 26 48 117 76 55 17 57 19 28 22
-17 2 -53 -4 -79 -13 -26 -9 -49 -14 -51 -11 -3 3 2 65 11 138 28 224 36 360
43 704 l6 332 58 17 c31 10 64 15 71 13 7 -3 19 -32 26 -64 7 -33 17 -66 22
-74 9 -13 12 -12 26 5 12 15 15 37 12 88 -3 64 -3 67 19 67 12 0 24 -3 26 -7
10 -17 48 -226 67 -367 11 -82 22 -151 25 -154 11 -11 4 290 -10 408 -8 69
-15 126 -15 128 0 1 6 2 14 2 7 0 42 -38 76 -85z m-444 -102 c9 -138 -11 -659
-36 -887 -18 -170 -23 -196 -39 -196 -4 0 -11 116 -15 258 -4 141 -11 295 -16
342 -5 47 -9 191 -9 320 l-1 236 43 16 c23 8 47 16 54 17 7 1 14 -35 19 -106z
m2464 -33 c0 -16 5 -32 10 -35 6 -3 10 -14 10 -23 0 -9 6 -29 14 -44 14 -26
13 -29 -20 -58 -19 -16 -36 -30 -37 -30 -4 0 -11 93 -12 147 0 28 -3 46 -7 40
-5 -8 -8 -6 -8 5 0 18 29 40 42 32 5 -3 8 -18 8 -34z m-2103 -47 c-3 -10 -5
-4 -5 12 0 17 2 24 5 18 2 -7 2 -21 0 -30z m2926 -20 c11 -18 19 -78 9 -68
-14 15 -32 75 -22 75 5 0 11 -3 13 -7z m-1977 -400 c4 -108 3 -183 -2 -183 -5
0 -35 21 -67 46 -49 38 -58 49 -52 67 21 66 75 295 75 317 0 14 3 36 7 50 13
45 32 -102 39 -297z m-5835 280 c-8 -15 -10 -15 -11 -2 0 17 10 32 18 25 2 -3
-1 -13 -7 -23z m2359 -160 c0 -161 111 -906 151 -1009 6 -16 21 -121 34 -234
14 -113 27 -218 30 -233 l5 -28 -48 6 c-26 4 -55 9 -64 11 -24 7 -80 190 -128
419 -31 152 -87 497 -100 615 -6 58 -19 185 -30 283 -11 98 -20 184 -20 191 0
8 24 17 63 23 113 18 107 21 107 -44z m4685 -10 c-4 -10 -12 -30 -17 -45 -5
-16 -14 -25 -19 -22 -16 10 -10 62 9 73 26 15 35 13 27 -6z m-6851 -129 c-17
-81 -32 -120 -20 -49 15 81 28 136 32 132 2 -2 -3 -39 -12 -83z m1931 -105
c15 -174 17 -199 36 -339 15 -113 67 -413 89 -515 40 -186 70 -321 79 -352
l10 -33 -41 0 c-23 0 -70 -5 -105 -11 -35 -6 -66 -10 -68 -8 -1 2 -11 90 -21
194 -27 278 -25 1269 2 1242 3 -2 11 -83 19 -178z m4910 99 c-4 -13 -23 -66
-42 -118 -70 -190 -78 -313 -33 -540 17 -83 30 -156 30 -163 -1 -47 -95 232
-111 328 -11 69 -10 77 16 156 53 161 132 359 143 359 2 0 0 -10 -3 -22z
m-6868 -120 c-3 -7 -5 -2 -5 12 0 14 2 19 5 13 2 -7 2 -19 0 -25z m-10 -40
c-3 -8 -6 -5 -6 6 -1 11 2 17 5 13 3 -3 4 -12 1 -19z m6883 -155 c-11 -17 -11
-17 -6 0 3 10 7 26 7 35 1 15 2 15 6 0 2 -10 -1 -25 -7 -35z m96 -298 c-3 -33
-5 -66 -5 -72 -2 -26 -29 -12 -30 15 -2 68 0 99 11 136 l11 41 9 -30 c4 -16 6
-57 4 -90z m-2674 5 c-2 -16 -8 -30 -13 -30 -10 0 -12 43 -2 53 14 14 19 6 15
-23z m2835 -12 c-3 -7 -5 -2 -5 12 0 14 2 19 5 13 2 -7 2 -19 0 -25z m-2889
-29 c-38 -25 -54 8 -15 34 20 14 22 13 25 -6 2 -11 -2 -24 -10 -28z m105 -59
c-26 -27 -50 -50 -53 -50 -3 0 -4 19 -4 42 1 46 14 55 77 57 28 1 27 1 -20
-49z m2113 -15 c3 -35 0 -63 -7 -71 -19 -23 -31 -16 -25 14 2 15 8 49 11 75 8
61 15 55 21 -18z m-5519 33 c-3 -8 -6 -5 -6 6 -1 11 2 17 5 13 3 -3 4 -12 1
-19z m6003 -32 c0 -3 -4 -8 -10 -11 -5 -3 -10 -1 -10 4 0 6 5 11 10 11 6 0 10
-2 10 -4z m424 -288 c8 -18 22 -69 30 -113 30 -153 41 -201 87 -366 8 -27 6
-61 -10 -145 -91 -493 -191 -823 -359 -1194 -61 -136 -182 -378 -182 -365 0 4
7 33 15 64 13 52 56 276 106 546 50 274 84 600 99 955 12 274 56 575 104 715
14 39 30 90 37 115 l12 45 23 -112 c12 -62 29 -127 38 -145z m-366 107 c1 -29
0 -29 -18 11 -15 35 -16 47 -6 78 l11 37 7 -48 c3 -26 6 -61 6 -78z m-550 3
c-3 -46 -7 -86 -7 -90 -1 -5 -4 -8 -9 -8 -4 0 -6 20 -4 45 3 30 0 45 -8 45
-13 0 -4 57 12 78 20 24 23 11 16 -70z m-6591 30 c-3 -7 -5 -2 -5 12 0 14 2
19 5 13 2 -7 2 -19 0 -25z m-10 -70 c-3 -7 -5 -2 -5 12 0 14 2 19 5 13 2 -7 2
-19 0 -25z m5393 -16 c0 -5 -12 -14 -26 -21 -38 -17 -80 0 -57 22 9 10 83 9
83 -1z m-399 -20 c30 -25 20 -52 -20 -52 -24 0 -32 5 -37 24 -11 47 16 60 57
28z m392 -79 c-7 -2 -19 -2 -25 0 -7 3 -2 5 12 5 14 0 19 -2 13 -5z m1187 -27
c0 -2 -9 -6 -20 -9 -11 -3 -18 -1 -14 4 5 9 34 13 34 5z m1114 -146 l-7 -55
-9 40 c-6 27 -5 56 4 90 13 50 13 50 16 15 2 -19 0 -60 -4 -90z m-5288 -68 c4
-26 3 -42 -4 -42 -14 0 -22 26 -22 73 1 51 16 32 26 -31z m4021 -4 c-3 -8 -6
-5 -6 6 -1 11 2 17 5 13 3 -3 4 -12 1 -19z m-1347 -14 c0 -14 -21 -19 -33 -7
-9 9 13 34 24 27 5 -3 9 -12 9 -20z m1502 -13 c39 -25 48 -37 64 -86 l18 -58
-32 -61 c-31 -59 -102 -157 -102 -141 0 5 6 16 13 24 28 32 42 103 34 166 -4
33 -8 79 -10 103 -1 33 -8 48 -27 62 -39 30 -9 23 42 -9z m-172 -38 c-11 -17
-11 -17 -6 0 3 10 6 24 7 30 0 9 2 9 5 0 3 -7 0 -20 -6 -30z m-4264 -314 c13
-57 37 -151 54 -209 17 -58 34 -114 36 -125 8 -29 -109 98 -165 180 -26 39
-51 83 -55 99 -12 48 -17 23 -6 -35 25 -144 28 -164 25 -167 -2 -2 -60 8 -129
21 -116 24 -215 58 -274 96 l-24 15 44 17 c59 24 71 24 58 0 -18 -34 -11 -31
41 20 54 53 123 103 161 118 13 5 50 21 83 36 67 31 105 44 119 41 6 -1 20
-49 32 -107z m4344 -33 c0 -2 -8 -10 -17 -17 -16 -13 -17 -12 -4 4 13 16 21
21 21 13z m-4968 -113 c3 -21 4 -39 3 -41 -3 -4 -45 63 -45 72 0 3 9 6 19 6
14 0 20 -9 23 -37z m5053 -290 c-1 -30 3 -49 9 -46 5 4 6 1 0 -8 -4 -8 -9 -23
-11 -34 -1 -11 1 -14 3 -7 3 6 12 12 20 12 8 0 14 -6 14 -12 0 -7 9 1 20 17
11 17 20 47 20 70 0 22 4 46 9 53 10 16 23 -106 16 -154 -2 -17 0 -44 5 -60
l8 -29 1 29 c1 16 4 27 7 23 3 -3 1 -43 -5 -89 -6 -46 -18 -139 -26 -208 -22
-172 -29 -198 -87 -335 -120 -285 -249 -538 -317 -623 -17 -20 -64 -82 -105
-137 -41 -55 -86 -113 -99 -130 l-25 -29 18 109 c9 61 33 204 53 320 43 251
54 321 63 400 4 33 11 65 16 72 5 6 10 31 12 55 6 78 51 231 78 262 4 6 8 23
8 38 0 15 4 28 9 28 12 0 51 67 51 88 0 10 14 32 30 50 17 18 30 37 30 41 0
13 61 40 76 34 19 -7 39 16 53 60 7 20 17 37 22 37 5 0 9 7 9 16 0 10 -6 13
-19 9 -16 -5 -19 0 -23 34 -2 22 0 54 5 71 6 25 13 31 30 28 20 -3 22 -9 22
-55z m-2395 -1893 c-20 -13 -77 -13 -85 0 -4 6 14 10 47 10 38 0 49 -3 38 -10z"/>
<path d="M3320 5445 c-12 -15 -28 -155 -16 -144 6 6 36 152 31 157 -1 1 -8 -4
-15 -13z"/>
<path d="M3187 5240 c-44 -266 -36 -875 18 -1334 9 -72 22 -192 31 -266 44
-400 132 -849 190 -974 30 -65 30 -50 0 39 -47 140 -37 141 32 2 70 -139 91
-173 78 -127 -6 24 -14 130 -9 130 2 0 16 -26 32 -57 16 -32 37 -67 46 -78 9
-11 2 8 -14 41 -40 81 -98 224 -121 293 -10 31 -36 107 -59 169 -35 98 -131
489 -131 535 0 9 -7 17 -15 17 -8 0 -15 8 -16 18 0 24 -16 197 -29 317 -37
363 -51 876 -29 1114 6 64 9 137 7 161 l-3 45 -8 -45z"/>
<path d="M2457 5147 c-4 -10 -7 -33 -6 -50 l1 -32 9 33 c12 40 8 79 -4 49z"/>
<path d="M4490 3855 c-2 -16 -2 -37 -1 -45 0 -8 2 -46 2 -83 1 -74 17 -87 32
-26 4 19 11 44 14 56 3 13 -3 33 -15 50 -11 16 -22 39 -25 53 -4 23 -4 23 -7
-5z"/>
<path d="M4020 2822 c-214 -106 -297 -152 -277 -152 12 0 480 237 502 254 11
8 18 15 15 15 -3 0 -111 -53 -240 -117z"/>
<path d="M3633 2670 c0 -25 2 -35 4 -22 2 12 2 32 0 45 -2 12 -4 2 -4 -23z"/>
<path d="M3410 2616 c0 -2 8 -10 18 -17 15 -13 16 -12 3 4 -13 16 -21 21 -21
13z"/>
<path d="M5847 2527 c-9 -25 -21 -117 -14 -117 8 0 29 108 25 122 -3 7 -7 5
-11 -5z"/>
<path d="M5493 2357 c-113 -190 -144 -256 -63 -132 80 122 172 283 168 294 -1
6 -49 -67 -105 -162z"/>
<path d="M5676 2384 c-44 -117 -66 -196 -53 -184 7 6 92 245 101 283 13 55 -2
24 -48 -99z"/>
<path d="M5324 2383 c-62 -76 -70 -92 -20 -39 42 44 73 86 63 86 -2 0 -21 -21
-43 -47z"/>
<path d="M4097 2303 c-11 -10 -8 -53 3 -53 6 0 10 14 10 30 0 31 -2 35 -13 23z"/>
<path d="M2630 1986 c-24 -58 -62 -194 -58 -208 4 -10 31 68 74 210 17 55 8
54 -16 -2z"/>
<path d="M2243 1943 c-55 -90 -137 -252 -131 -259 7 -6 180 306 176 318 -2 5
-22 -22 -45 -59z"/>
<path d="M2086 1914 c-36 -49 -63 -90 -61 -93 3 -2 7 -2 8 0 46 56 127 172
123 176 -2 3 -34 -35 -70 -83z"/>
<path d="M2436 1951 c-7 -10 -85 -226 -93 -256 -4 -13 -2 -17 4 -10 12 11 87
204 97 248 6 27 2 35 -8 18z"/>
<path d="M4500 1194 c-115 -68 -103 -83 17 -20 52 28 83 50 83 60 0 14 -29 3
-100 -40z"/>
<path d="M3967 1135 c-9 -21 20 -31 126 -46 94 -14 160 -2 72 12 -44 8 -107
24 -171 44 -15 5 -23 2 -27 -10z"/>
<path d="M6400 5201 c0 -5 5 -13 10 -16 6 -3 10 -2 10 4 0 5 -4 13 -10 16 -5
3 -10 2 -10 -4z"/>
<path d="M6866 3471 c-4 -7 -5 -29 0 -49 9 -44 5 -137 -7 -169 -10 -28 8 -32
27 -6 7 10 15 15 19 12 3 -4 10 -57 15 -119 5 -62 12 -115 15 -118 11 -11 4
197 -9 273 -19 102 -50 193 -60 176z m33 -181 c0 -9 -4 -8 -9 5 -5 11 -9 27
-9 35 0 9 4 8 9 -5 5 -11 9 -27 9 -35z"/>
<path d="M3220 7985 c7 -8 31 -20 54 -26 22 -6 55 -18 71 -26 17 -8 26 -11 20
-7 -5 5 -27 25 -48 44 -31 29 -39 32 -47 20 -7 -12 -12 -12 -22 -2 -6 6 -18
12 -26 12 -12 0 -12 -3 -2 -15z"/>
<path d="M3710 7985 c-7 -8 -8 -15 -2 -15 5 0 15 7 22 15 7 8 8 15 2 15 -5 0
-15 -7 -22 -15z"/>
<path d="M5046 7984 c-13 -35 -12 -37 67 -124 13 -14 35 -42 51 -63 30 -40 50
-45 22 -5 -36 51 -40 120 -11 191 4 9 3 17 -3 17 -12 0 -42 -72 -42 -103 -1
-20 -2 -20 -16 7 -10 18 -14 41 -11 62 5 32 4 34 -23 34 -16 0 -30 -7 -34 -16z"/>
<path d="M2438 7843 c7 -3 16 -2 19 1 4 3 -2 6 -13 5 -11 0 -14 -3 -6 -6z"/>
<path d="M2310 7803 c-18 -7 -75 -53 -65 -53 12 0 85 45 85 53 0 4 -1 7 -2 6
-2 0 -10 -3 -18 -6z"/>
<path d="M2057 7409 c-21 -39 -36 -73 -34 -76 8 -7 77 110 77 129 0 10 -1 18
-2 18 -2 0 -20 -32 -41 -71z"/>
<path d="M1854 4935 c-9 -50 0 -53 13 -5 5 22 7 40 2 40 -4 0 -11 -16 -15 -35z"/>
<path d="M832 2440 c0 -14 2 -19 5 -12 2 6 2 18 0 25 -3 6 -5 1 -5 -13z"/>
<path d="M3440 46 c0 -8 -3 -21 -6 -30 -5 -13 2 -16 34 -16 l40 0 -26 30 c-29
33 -42 38 -42 16z"/>
</g>
</svg>
